<?xml version="1.0" standalone="no"?>
<!DOCTYPE svg PUBLIC "-//W3C//DTD SVG 20010904//EN"
		"http://www.w3.org/TR/2001/REC-SVG-20010904/DTD/svg10.dtd">
<svg version="1.0" xmlns="http://www.w3.org/2000/svg"
	 width="300pt" height="300pt" viewBox="0 0 626.000000 626.000000"
	 preserveAspectRatio="xMidYMid meet">

	<g transform="translate(0.000000,626.000000) scale(0.100000,-0.100000)"
	   fill="black" stroke="none">
		<path d="M3300 5650 c-268 -57 -515 -227 -660 -453 l-55 -86 -45 -1 c-88 -1
-183 -69 -214 -154 -18 -47 -46 -228 -46 -294 0 -65 18 -117 58 -162 34 -41
97 -80 127 -80 20 0 38 -46 26 -68 -5 -10 -19 -26 -32 -37 -12 -11 -48 -55
-79 -97 l-57 -77 -47 48 c-46 47 -48 51 -52 117 -9 144 -48 239 -108 268 -55
26 -93 21 -130 -17 -17 -18 -35 -40 -41 -50 -9 -16 -15 -14 -60 19 -99 72
-161 88 -230 60 -40 -17 -70 -61 -79 -116 -5 -33 -11 -40 -40 -50 -75 -25
-165 -163 -174 -267 -6 -74 23 -129 106 -199 37 -31 113 -106 169 -167 114
-125 245 -244 346 -314 l68 -48 -6 -45 c-40 -322 -30 -571 32 -822 l16 -66
-46 -52 c-53 -58 -90 -131 -106 -208 -14 -67 -14 -267 -1 -293 18 -33 52 -22
93 30 51 65 126 142 165 170 36 25 36 24 47 -49 12 -89 64 -134 183 -161 59
-14 66 -24 22 -34 -41 -9 -139 -74 -179 -120 -58 -67 -84 -138 -89 -242 -5
-118 15 -187 110 -376 109 -218 152 -379 147 -543 -2 -72 10 -96 39 -78 11 7
21 36 29 85 28 163 91 312 195 453 l50 69 36 -67 c43 -82 119 -160 193 -201
45 -24 68 -30 141 -33 114 -6 205 20 270 78 59 51 79 96 87 189 6 72 7 76 29
73 43 -6 124 29 168 73 50 50 105 161 130 262 18 72 19 73 76 108 230 142 328
530 227 897 -11 39 -18 73 -15 75 2 2 21 -4 43 -15 21 -11 72 -30 113 -42 58
-17 86 -33 130 -72 146 -130 281 -139 404 -27 72 65 99 121 99 205 0 144 -105
275 -358 444 -138 93 -321 312 -422 505 -60 115 -60 111 0 149 114 73 236 199
309 317 l41 66 57 6 c31 2 70 12 86 20 44 23 94 76 114 122 21 46 50 229 50
313 0 107 -70 203 -170 233 -36 11 -38 14 -59 90 -11 44 -41 120 -65 169 -147
299 -411 505 -731 571 -119 25 -318 25 -435 -1z m395 -54 c267 -47 495 -199
654 -433 47 -70 43 -81 -10 -27 -74 77 -222 167 -374 227 -332 132 -734 151
-1004 48 -30 -11 -56 -19 -58 -17 -4 4 136 95 182 118 53 27 178 69 245 83 88
18 267 18 365 1z m-31 -205 c193 -40 390 -118 525 -211 155 -105 280 -262 306
-385 13 -65 13 -101 -1 -59 -3 10 -22 53 -42 94 -70 147 -241 288 -462 383
-227 96 -576 152 -795 128 -142 -16 -217 -36 -323 -87 -74 -36 -107 -59 -168
-120 -70 -71 -74 -73 -52 -34 89 161 293 274 563 314 74 11 353 -4 449 -23z
m-69 -211 l40 -13 -80 -12 c-199 -30 -404 -115 -519 -215 -16 -14 -33 -24 -38
-22 -5 1 -7 -2 -4 -6 3 -5 -4 -18 -15 -28 -50 -45 -198 -260 -261 -379 l-37
-70 -1 75 c-1 258 72 467 195 562 60 47 174 91 285 112 102 18 373 16 435 -4z
m-1035 -134 c0 -2 -8 -24 -19 -48 -42 -98 -64 -227 -65 -374 -1 -156 0 -154
-62 -108 -18 13 -42 44 -54 69 -22 46 -22 46 -6 181 22 185 42 229 121 265 36
17 85 25 85 15z m2048 -302 c39 -23 81 -81 88 -123 10 -49 -24 -277 -47 -322
-23 -47 -70 -85 -117 -99 -20 -5 -40 -10 -44 -10 -4 0 3 28 16 63 42 111 60
221 61 369 0 76 4 138 8 138 5 0 21 -7 35 -16z m-318 -83 c59 -42 59 -138 0
-233 -37 -58 -72 -83 -122 -83 -108 0 -140 171 -51 275 60 70 115 83 173 41z
m-2507 -146 c25 -13 69 -41 97 -62 43 -32 50 -42 50 -71 0 -18 -7 -47 -16 -64
-27 -52 -29 -128 -6 -181 12 -27 28 -47 36 -47 19 0 20 8 1 40 -21 36 -18 100
6 145 12 22 27 75 34 118 20 114 51 153 100 127 40 -21 67 -102 73 -212 l5
-98 71 -67 c39 -38 102 -88 139 -113 77 -52 76 -47 47 -191 -24 -115 -61 -224
-100 -294 -33 -58 -97 -135 -112 -135 -21 0 -165 94 -254 165 -49 40 -160 145
-244 234 -85 88 -177 177 -203 197 -26 20 -57 55 -69 77 -18 36 -19 46 -9 92
13 57 68 146 107 172 14 9 42 19 62 22 l37 6 5 60 c6 67 13 83 44 95 34 14 50
12 99 -15z m753 -260 c4 -16 1 -32 -8 -43 -17 -19 -54 -63 -91 -107 -21 -25
-27 -28 -41 -16 -15 13 -15 16 0 40 32 49 116 151 125 151 5 0 11 -11 15 -25z
m382 -348 c208 -128 421 -187 679 -187 153 0 254 12 367 45 95 28 84 13 -33
-42 -128 -61 -246 -86 -401 -86 -145 -1 -207 9 -338 54 -150 50 -294 146 -403
268 -89 100 -92 113 -13 48 38 -30 102 -76 142 -100z m-360 19 c49 -25 202
-76 228 -76 8 0 42 -22 77 -48 149 -117 313 -188 502 -217 185 -29 382 -6 559
66 38 16 71 27 72 26 2 -1 23 -43 48 -92 24 -50 70 -127 100 -173 l56 -83 -47
-55 c-27 -29 -51 -54 -54 -54 -4 0 -10 17 -13 38 -17 95 -69 292 -77 292 -13
0 -12 -4 20 -220 39 -259 41 -295 18 -295 -13 0 -23 13 -33 40 -15 45 -61 91
-100 101 -14 4 -173 0 -353 -8 -294 -13 -331 -16 -362 -34 -47 -28 -79 -78
-79 -125 l0 -39 -92 0 c-88 0 -268 17 -277 26 -4 4 11 204 26 348 5 48 3 58
-8 54 -8 -3 -19 -27 -25 -54 l-10 -49 -85 2 c-81 1 -209 26 -314 60 -27 8 -51
17 -53 18 -2 2 13 24 33 51 72 94 139 261 164 409 17 100 21 115 27 115 2 0
26 -11 52 -24z m-256 -620 c103 -35 248 -66 340 -73 l78 -6 -5 -31 c-3 -17 -9
-66 -14 -110 -9 -72 -12 -81 -44 -107 -87 -72 -87 -200 0 -268 26 -21 27 -27
35 -149 4 -70 10 -132 13 -139 10 -28 -11 -10 -35 28 -33 53 -52 49 -112 -26
-53 -65 -85 -140 -91 -210 -2 -25 -6 -48 -9 -50 -6 -6 -122 31 -159 50 -48 25
-140 248 -178 431 -47 225 -52 475 -15 706 l6 37 58 -29 c33 -17 92 -41 132
-54z m2033 -127 c50 -49 119 -110 155 -134 151 -101 197 -162 185 -244 -9 -60
-41 -133 -70 -161 -19 -18 -27 -20 -44 -11 -27 15 -35 48 -28 127 2 35 1 66
-3 69 -5 3 -57 -7 -117 -21 -148 -36 -138 -33 -124 -47 8 -8 43 -11 102 -10
52 1 87 -3 83 -8 -3 -5 0 -35 6 -66 21 -97 92 -133 158 -78 36 30 81 128 89
195 3 27 9 50 12 50 10 0 60 -85 76 -130 19 -53 19 -91 1 -134 -32 -78 -137
-156 -208 -156 -50 0 -132 43 -192 100 -42 40 -68 55 -118 69 -69 20 -149 53
-185 76 -19 13 -20 18 -11 55 6 24 16 40 25 40 28 0 80 63 87 106 10 55 -16
117 -59 144 -51 31 -60 90 -21 146 28 42 94 114 104 114 4 0 48 -41 97 -91z
m-570 -125 c10 -92 2 -140 -33 -183 -49 -62 -56 -82 -58 -176 l-2 -90 -124 -7
c-136 -7 -171 2 -195 53 -6 13 -14 103 -19 205 -9 250 -15 243 201 254 72 4
151 7 177 8 l46 2 7 -66z m162 51 c33 -23 41 -65 48 -251 l7 -172 -30 -33
c-30 -33 -32 -34 -125 -37 l-95 -4 -4 69 c-5 73 8 121 42 158 41 44 53 94 46
193 l-7 92 48 0 c27 0 58 -7 70 -15z m-643 -22 c-4 -10 -10 -61 -14 -113 -4
-52 -7 -89 -8 -81 -1 8 -23 34 -48 57 -45 43 -46 44 -34 79 12 38 59 75 94 75
14 0 16 -4 10 -17z m847 -132 c38 -38 38 -74 -1 -112 -23 -24 -37 -30 -62 -27
l-33 3 -3 83 -3 82 36 0 c27 0 44 -8 66 -29z m-1266 -32 c44 -5 128 -9 186 -8
113 1 143 -7 155 -43 17 -51 -8 -131 -43 -142 -55 -17 -177 -28 -243 -22 -137
13 -205 33 -240 72 -35 40 -40 86 -13 124 25 37 34 41 78 35 22 -4 76 -11 120
-16z m433 -296 c20 -37 15 -46 -20 -39 -33 6 -63 29 -79 57 -6 13 -1 25 20 48
17 18 36 48 43 69 l13 37 5 -75 c4 -41 11 -85 18 -97z m-431 25 c57 -8 108 -9
172 -2 l91 9 10 -31 c13 -38 44 -68 90 -88 31 -12 76 -12 360 1 234 11 333 19
354 29 16 8 31 13 32 11 2 -2 -20 -27 -49 -56 -67 -69 -174 -121 -332 -162
-104 -27 -138 -32 -252 -32 -123 -1 -159 -8 -115 -21 34 -11 158 -26 214 -26
l57 0 6 -57 c3 -32 8 -77 11 -100 5 -41 4 -43 -35 -63 -72 -36 -167 -53 -266
-46 -108 6 -255 42 -347 84 l-66 30 -7 49 c-3 26 -12 91 -20 143 -8 52 -17
133 -20 180 -3 47 -8 105 -11 129 -5 42 -5 44 18 37 13 -3 60 -11 105 -18z
m1214 -309 c14 -122 7 -216 -18 -235 -10 -8 -47 -23 -82 -34 -79 -25 -241 -27
-340 -5 l-67 16 -11 102 c-6 56 -9 103 -8 105 1 1 46 14 101 28 148 38 236 84
314 163 l65 67 17 -52 c9 -29 22 -98 29 -155z m-1957 53 c-6 -4 -27 -31 -47
-59 -33 -49 -56 -105 -72 -177 -11 -50 -13 -23 -3 39 16 103 95 242 122 215 8
-8 8 -13 0 -18z m434 -69 c-28 -64 -35 -189 -14 -258 8 -27 13 -51 11 -53 -2
-2 -14 28 -26 68 -27 90 -22 164 15 238 33 65 42 68 14 5z m345 -302 c189 -66
385 -84 512 -47 111 33 103 35 98 -26 -13 -155 -50 -293 -116 -426 -45 -92
-69 -116 -131 -133 -40 -11 -187 -7 -248 7 -51 11 -30 -15 24 -31 82 -24 204
-29 263 -11 27 8 53 12 57 8 19 -19 50 -135 55 -207 5 -71 3 -86 -17 -125 -27
-53 -38 -63 -110 -98 -46 -22 -69 -26 -140 -27 -73 0 -92 4 -136 27 -94 49
-176 160 -216 291 -19 63 -20 85 -14 206 3 75 10 183 16 241 5 58 9 167 10
243 0 75 3 137 6 137 3 0 42 -13 87 -29z m1152 -40 c-37 -140 -137 -271 -248
-325 -73 -36 -145 -34 -228 8 l-55 28 17 78 c9 43 20 117 24 165 5 65 10 85
20 81 77 -29 335 -32 410 -3 71 26 75 24 60 -32z m-1305 -113 c0 -23 0 -23
-51 6 l-42 25 39 3 c41 3 54 -5 54 -34z m-100 -61 c101 -54 93 -40 86 -147
-15 -224 -12 -214 -82 -296 -34 -41 -66 -83 -69 -94 -4 -11 -11 -20 -16 -20
-5 0 -9 -6 -9 -12 0 -7 -6 -25 -14 -40 -8 -15 -20 -53 -27 -85 l-13 -58 -7 75
c-3 41 -16 99 -28 129 -22 54 -69 142 -82 151 -3 3 -21 34 -40 70 -64 124 -48
241 42 301 24 16 59 32 77 35 20 4 29 10 22 14 -6 4 17 6 52 4 45 -1 76 -9
108 -27z m-320 -81 c0 -2 -8 -10 -17 -17 -16 -13 -17 -12 -4 4 13 16 21 21 21
13z m1239 -90 c35 -24 71 -38 119 -46 l69 -13 -14 -53 c-46 -178 -134 -279
-234 -272 l-42 3 -32 79 -32 80 39 75 c21 42 46 100 55 129 9 28 18 52 19 52
1 0 25 -15 53 -34z"/>
		<path d="M3403 2955 c-12 -8 -29 -35 -38 -58 -20 -54 -9 -111 31 -148 22 -21
34 -24 90 -22 35 1 73 7 84 13 65 35 66 185 1 220 -30 16 -143 12 -168 -5z
m155 -35 c62 -58 -8 -142 -77 -94 -19 13 -22 22 -17 47 7 37 33 67 56 67 9 0
26 -9 38 -20z"/>
	</g>
</svg>